<svg xmlns="http://www.w3.org/2000/svg" viewBox="0 0 320 80" width="320" height="80">
  <rect width="320" height="80" rx="8" fill="#1c2127"/>
  <!-- Industrial / Metal icon: Heavy forged R combined with steel girder / spark beam -->
  <g transform="translate(18, 14)">
    <path d="M6 8 L24 8 C32 8 36 12 36 18 C36 24 31 28 23 28 L14 28 L14 50 L6 50 Z" fill="#e2e8f0"/>
    <path d="M14 16 L22 16 C26 16 28 17.5 28 20 C28 22.5 26 24 22 24 L14 24 Z" fill="#1c2127"/>
    <path d="M22 27 L38 50 L28 50 L16 32 Z" fill="#C4561D"/>
    <!-- Welding spark -->
    <path d="M38 12 L43 3 L48 12 L43 21 Z" fill="#F59E0B"/>
    <circle cx="43" cy="12" r="3" fill="#FFF7ED"/>
  </g>
  <!-- Text Brand -->
  <text x="76" y="35" font-family="'Barlow Condensed', 'Oswald', sans-serif" font-weight="900" font-size="28" fill="#F8FAFC" letter-spacing="2">ROMATSA</text>
  <text x="76" y="52" font-family="'Barlow Condensed', 'Oswald', sans-serif" font-weight="700" font-size="13" fill="#C4561D" letter-spacing="1.5">MAESTRANZA &amp; ESTRUCTURAS EN TERRENO</text>
  <text x="76" y="66" font-family="'Inter', sans-serif" font-weight="600" font-size="9.5" fill="#94A3B8" letter-spacing="0.5">ÑUBLE · MAULE · BIOBÍO | TALLER MÓVIL A TU PREDIO</text>
</svg>